<?xml version="1.0" encoding="UTF-8"?>
<svg id="Calque_2" data-name="Calque 2" xmlns="http://www.w3.org/2000/svg" viewBox="0 0 693.82 401.15">
  <defs>
    <style>
      .cls-1 {
        fill: none;
        stroke: #fff;
        stroke-miterlimit: 10;
      }
    </style>
  </defs>
  <g id="Calque_1-2" data-name="Calque 1">
    <g>
      <polygon class="cls-1" points="173.71 300.58 130.4 325.58 130.4 375.58 173.71 400.58 217.01 375.58 217.01 325.58 173.71 300.58"/>
      <polygon class="cls-1" points="130.4 225.58 87.1 250.58 87.1 300.58 130.4 325.58 173.71 300.58 173.71 250.58 130.4 225.58"/>
      <polygon class="cls-1" points="43.8 75.58 .5 100.58 .5 150.58 43.8 175.58 87.1 150.58 87.1 100.58 43.8 75.58"/>
      <polygon class="cls-1" points="260.31 300.58 217.01 325.58 217.01 375.58 260.31 400.58 303.61 375.58 303.61 325.58 260.31 300.58"/>
      <polygon class="cls-1" points="217.01 225.58 173.71 250.58 173.71 300.58 217.01 325.58 260.31 300.58 260.31 250.58 217.01 225.58"/>
      <polygon class="cls-1" points="173.71 150.58 130.4 175.58 130.4 225.58 173.71 250.58 217.01 225.58 217.01 175.58 173.71 150.58"/>
      <polygon class="cls-1" points="130.4 75.58 87.1 100.58 87.1 150.58 130.4 175.58 173.71 150.58 173.71 100.58 130.4 75.58"/>
      <polygon class="cls-1" points="346.91 300.58 303.61 325.58 303.61 375.58 346.91 400.58 390.21 375.58 390.21 325.58 346.91 300.58"/>
      <polygon class="cls-1" points="303.61 225.58 260.31 250.58 260.31 300.58 303.61 325.58 346.91 300.58 346.91 250.58 303.61 225.58"/>
      <polygon class="cls-1" points="260.31 150.58 217.01 175.58 217.01 225.58 260.31 250.58 303.61 225.58 303.61 175.58 260.31 150.58"/>
      <polygon class="cls-1" points="217.01 75.58 173.71 100.58 173.71 150.58 217.01 175.58 260.31 150.58 260.31 100.58 217.01 75.58"/>
      <polygon class="cls-1" points="433.51 300.58 390.21 325.58 390.21 375.58 433.51 400.58 476.81 375.58 476.81 325.58 433.51 300.58"/>
      <polygon class="cls-1" points="390.21 225.58 346.91 250.58 346.91 300.58 390.21 325.58 433.51 300.58 433.51 250.58 390.21 225.58"/>
      <polygon class="cls-1" points="346.91 150.58 303.61 175.58 303.61 225.58 346.91 250.58 390.21 225.58 390.21 175.58 346.91 150.58"/>
      <polygon class="cls-1" points="303.61 75.58 260.31 100.58 260.31 150.58 303.61 175.58 346.91 150.58 346.91 100.58 303.61 75.58"/>
      <polygon class="cls-1" points="260.31 .58 217.01 25.58 217.01 75.58 260.31 100.58 303.61 75.58 303.61 25.58 260.31 .58"/>
      <polygon class="cls-1" points="520.12 300.58 476.81 325.58 476.81 375.58 520.12 400.58 563.42 375.58 563.42 325.58 520.12 300.58"/>
      <polygon class="cls-1" points="476.81 225.58 433.51 250.58 433.51 300.58 476.81 325.58 520.12 300.58 520.12 250.58 476.81 225.58"/>
      <polygon class="cls-1" points="433.51 150.58 390.21 175.58 390.21 225.58 433.51 250.58 476.81 225.58 476.81 175.58 433.51 150.58"/>
      <polygon class="cls-1" points="390.21 75.58 346.91 100.58 346.91 150.58 390.21 175.58 433.51 150.58 433.51 100.58 390.21 75.58"/>
      <polygon class="cls-1" points="346.91 .58 303.61 25.58 303.61 75.58 346.91 100.58 390.21 75.58 390.21 25.58 346.91 .58"/>
      <polygon class="cls-1" points="606.72 300.58 563.42 325.58 563.42 375.58 606.72 400.58 650.02 375.58 650.02 325.58 606.72 300.58"/>
      <polygon class="cls-1" points="563.42 225.58 520.12 250.58 520.12 300.58 563.42 325.58 606.72 300.58 606.72 250.58 563.42 225.58"/>
      <polygon class="cls-1" points="520.12 150.58 476.81 175.58 476.81 225.58 520.12 250.58 563.42 225.58 563.42 175.58 520.12 150.58"/>
      <polygon class="cls-1" points="476.81 75.58 433.51 100.58 433.51 150.58 476.81 175.58 520.12 150.58 520.12 100.58 476.81 75.58"/>
      <polygon class="cls-1" points="433.51 .58 390.21 25.58 390.21 75.58 433.51 100.58 476.81 75.58 476.81 25.58 433.51 .58"/>
      <polygon class="cls-1" points="650.02 225.58 606.72 250.58 606.72 300.58 650.02 325.58 693.32 300.58 693.32 250.58 650.02 225.58"/>
      <polygon class="cls-1" points="606.72 150.58 563.42 175.58 563.42 225.58 606.72 250.58 650.02 225.58 650.02 175.58 606.72 150.58"/>
      <polygon class="cls-1" points="563.42 75.58 520.12 100.58 520.12 150.58 563.42 175.58 606.72 150.58 606.72 100.58 563.42 75.58"/>
      <polygon class="cls-1" points="520.12 .58 476.81 25.58 476.81 75.58 520.12 100.58 563.42 75.58 563.42 25.58 520.12 .58"/>
      <polygon class="cls-1" points="606.72 .58 563.42 25.58 563.42 75.58 606.72 100.58 650.02 75.58 650.02 25.58 606.72 .58"/>
    </g>
  </g>
</svg>