<?xml version="1.0" encoding="UTF-8"?>
<svg id="Calque_2" data-name="Calque 2" xmlns="http://www.w3.org/2000/svg" viewBox="0 0 477.31 326.15">
  <defs>
    <style>
      .cls-1 {
        fill: none;
        stroke: #85b1ff;
        stroke-miterlimit: 10;
      }
    </style>
  </defs>
  <g id="Calque_1-2" data-name="Calque 1">
    <g>
      <polygon class="cls-1" points="43.8 225.58 .5 250.58 .5 300.58 43.8 325.58 87.1 300.58 87.1 250.58 43.8 225.58"/>
      <polygon class="cls-1" points="130.4 225.58 87.1 250.58 87.1 300.58 130.4 325.58 173.71 300.58 173.71 250.58 130.4 225.58"/>
      <polygon class="cls-1" points="87.1 150.58 43.8 175.58 43.8 225.58 87.1 250.58 130.4 225.58 130.4 175.58 87.1 150.58"/>
      <polygon class="cls-1" points="43.8 75.58 .5 100.58 .5 150.58 43.8 175.58 87.1 150.58 87.1 100.58 43.8 75.58"/>
      <polygon class="cls-1" points="173.71 150.58 130.4 175.58 130.4 225.58 173.71 250.58 217.01 225.58 217.01 175.58 173.71 150.58"/>
      <polygon class="cls-1" points="130.4 75.58 87.1 100.58 87.1 150.58 130.4 175.58 173.71 150.58 173.71 100.58 130.4 75.58"/>
      <polygon class="cls-1" points="87.1 .58 43.8 25.58 43.8 75.58 87.1 100.58 130.4 75.58 130.4 25.58 87.1 .58"/>
      <polygon class="cls-1" points="217.01 75.58 173.71 100.58 173.71 150.58 217.01 175.58 260.31 150.58 260.31 100.58 217.01 75.58"/>
      <polygon class="cls-1" points="173.71 .58 130.4 25.58 130.4 75.58 173.71 100.58 217.01 75.58 217.01 25.58 173.71 .58"/>
      <polygon class="cls-1" points="346.91 150.58 303.61 175.58 303.61 225.58 346.91 250.58 390.21 225.58 390.21 175.58 346.91 150.58"/>
      <polygon class="cls-1" points="303.61 75.58 260.31 100.58 260.31 150.58 303.61 175.58 346.91 150.58 346.91 100.58 303.61 75.58"/>
      <polygon class="cls-1" points="260.31 .58 217.01 25.58 217.01 75.58 260.31 100.58 303.61 75.58 303.61 25.58 260.31 .58"/>
      <polygon class="cls-1" points="390.21 75.58 346.91 100.58 346.91 150.58 390.21 175.58 433.51 150.58 433.51 100.58 390.21 75.58"/>
      <polygon class="cls-1" points="346.91 .58 303.61 25.58 303.61 75.58 346.91 100.58 390.21 75.58 390.21 25.58 346.91 .58"/>
      <polygon class="cls-1" points="433.51 .58 390.21 25.58 390.21 75.58 433.51 100.58 476.81 75.58 476.81 25.58 433.51 .58"/>
    </g>
  </g>
</svg>