<?xml version="1.0" encoding="UTF-8"?>
<svg id="Calque_2" data-name="Calque 2" xmlns="http://www.w3.org/2000/svg" xmlns:xlink="http://www.w3.org/1999/xlink" viewBox="0 0 607.22 326.15">
  <defs>
    <style>
      .cls-1 {
        fill: url(#Dégradé_sans_nom_100);
      }

      .cls-2 {
        fill: none;
        stroke: #85b1ff;
        stroke-miterlimit: 10;
      }

      .cls-3 {
        mask: url(#mask);
      }
    </style>
    <linearGradient id="Dégradé_sans_nom_100" data-name="Dégradé sans nom 100" x1="-51.8" y1="-160.53" x2="558.92" y2="450.19" gradientUnits="userSpaceOnUse">
      <stop offset="0" stop-color="#000"/>
      <stop offset="1" stop-color="#fff"/>
    </linearGradient>
    <mask id="mask" x="-137.59" y="-74.74" width="782.3" height="439.15" maskUnits="userSpaceOnUse">
      <rect class="cls-1" x="-137.59" y="-74.74" width="782.3" height="439.15"/>
    </mask>
  </defs>
  <g id="Calque_1-2" data-name="Calque 1">
    <g class="cls-3">
      <g>
        <g>
          <polygon class="cls-2" points="130.4 225.58 87.1 250.58 87.1 300.58 130.4 325.58 173.71 300.58 173.71 250.58 130.4 225.58"/>
          <polygon class="cls-2" points="43.8 75.58 .5 100.58 .5 150.58 43.8 175.58 87.1 150.58 87.1 100.58 43.8 75.58"/>
          <polygon class="cls-2" points="217.01 225.58 173.71 250.58 173.71 300.58 217.01 325.58 260.31 300.58 260.31 250.58 217.01 225.58"/>
          <polygon class="cls-2" points="173.71 150.58 130.4 175.58 130.4 225.58 173.71 250.58 217.01 225.58 217.01 175.58 173.71 150.58"/>
          <polygon class="cls-2" points="130.4 75.58 87.1 100.58 87.1 150.58 130.4 175.58 173.71 150.58 173.71 100.58 130.4 75.58"/>
          <polygon class="cls-2" points="303.61 225.58 260.31 250.58 260.31 300.58 303.61 325.58 346.91 300.58 346.91 250.58 303.61 225.58"/>
          <polygon class="cls-2" points="260.31 150.58 217.01 175.58 217.01 225.58 260.31 250.58 303.61 225.58 303.61 175.58 260.31 150.58"/>
          <polygon class="cls-2" points="217.01 75.58 173.71 100.58 173.71 150.58 217.01 175.58 260.31 150.58 260.31 100.58 217.01 75.58"/>
          <polygon class="cls-2" points="390.21 225.58 346.91 250.58 346.91 300.58 390.21 325.58 433.51 300.58 433.51 250.58 390.21 225.58"/>
          <polygon class="cls-2" points="346.91 150.58 303.61 175.58 303.61 225.58 346.91 250.58 390.21 225.58 390.21 175.58 346.91 150.58"/>
          <polygon class="cls-2" points="303.61 75.58 260.31 100.58 260.31 150.58 303.61 175.58 346.91 150.58 346.91 100.58 303.61 75.58"/>
          <polygon class="cls-2" points="260.31 .58 217.01 25.58 217.01 75.58 260.31 100.58 303.61 75.58 303.61 25.58 260.31 .58"/>
          <polygon class="cls-2" points="476.81 225.58 433.51 250.58 433.51 300.58 476.81 325.58 520.12 300.58 520.12 250.58 476.81 225.58"/>
          <polygon class="cls-2" points="433.51 150.58 390.21 175.58 390.21 225.58 433.51 250.58 476.81 225.58 476.81 175.58 433.51 150.58"/>
          <polygon class="cls-2" points="390.21 75.58 346.91 100.58 346.91 150.58 390.21 175.58 433.51 150.58 433.51 100.58 390.21 75.58"/>
          <polygon class="cls-2" points="346.91 .58 303.61 25.58 303.61 75.58 346.91 100.58 390.21 75.58 390.21 25.58 346.91 .58"/>
          <polygon class="cls-2" points="563.42 225.58 520.12 250.58 520.12 300.58 563.42 325.58 606.72 300.58 606.72 250.58 563.42 225.58"/>
          <polygon class="cls-2" points="520.12 150.58 476.81 175.58 476.81 225.58 520.12 250.58 563.42 225.58 563.42 175.58 520.12 150.58"/>
          <polygon class="cls-2" points="476.81 75.58 433.51 100.58 433.51 150.58 476.81 175.58 520.12 150.58 520.12 100.58 476.81 75.58"/>
          <polygon class="cls-2" points="433.51 .58 390.21 25.58 390.21 75.58 433.51 100.58 476.81 75.58 476.81 25.58 433.51 .58"/>
          <polygon class="cls-2" points="563.42 75.58 520.12 100.58 520.12 150.58 563.42 175.58 606.72 150.58 606.72 100.58 563.42 75.58"/>
        </g>
        <polygon class="cls-2" points="520.12 .58 476.81 25.58 476.81 75.58 520.12 100.58 563.42 75.58 563.42 25.58 520.12 .58"/>
      </g>
    </g>
  </g>
</svg>