<?xml version="1.0" encoding="UTF-8"?>
<svg id="Calque_2" data-name="Calque 2" xmlns="http://www.w3.org/2000/svg" viewBox="0 0 353.55 459.62">
  <defs>
    <style>
      .cls-1 {
        fill: #fff;
      }
    </style>
  </defs>
  <g id="Calque_2-2" data-name="Calque 2">
    <path d="m164.28,447.12L0,282.84l88.39-88.39-53.03-53.03L176.78,0l141.42,141.42-53.03,53.03,88.39,88.39-164.28,164.28-12.5,12.5-12.5-12.5Z"/>
    <path class="cls-1" d="m282.84,141.42l-35.36,35.36-70.71-70.71-70.71,70.71-35.36-35.36,106.07-106.07,106.07,106.07Zm-93.57,12.5v70.71l58.21,58.21-58.21,58.21v70.71l128.92-128.92-128.92-128.92Zm-25,187.13l-58.21-58.21,58.21-58.21v-70.71L35.36,282.84l128.92,128.92v-70.71Z"/>
  </g>
</svg>